<svg width="64" height="64" viewBox="0 0 64 64" fill="none" xmlns="http://www.w3.org/2000/svg">
  <rect width="64" height="64" rx="12" fill="url(#gradient)"/>
  <path d="M32 12C25.373 12 20 17.373 20 24C20 30.627 25.373 36 32 36C38.627 36 44 30.627 44 24C44 17.373 38.627 12 32 12ZM32 34C26.486 34 22 29.514 22 24C22 18.486 26.486 14 32 14C37.514 14 42 18.486 42 24C42 29.514 37.514 34 32 34Z" fill="white"/>
  <path d="M48 44C48 37.373 40.627 32 32 32C23.373 32 16 37.373 16 44V48H48V44ZM18 46V44C18 38.486 24.486 34 32 34C39.514 34 46 38.486 46 44V46H18Z" fill="white"/>
  <path d="M28 20C28 21.105 27.105 22 26 22C24.895 22 24 21.105 24 20C24 18.895 24.895 18 26 18C27.105 18 28 18.895 28 20Z" fill="white"/>
  <path d="M40 20C40 21.105 39.105 22 38 22C36.895 22 36 21.105 36 20C36 18.895 36.895 18 38 18C39.105 18 40 18.895 40 20Z" fill="white"/>
  <defs>
    <linearGradient id="gradient" x1="0%" y1="0%" x2="100%" y2="100%">
      <stop offset="0%" style="stop-color:#667eea;stop-opacity:1" />
      <stop offset="100%" style="stop-color:#764ba2;stop-opacity:1" />
    </linearGradient>
  </defs>
</svg>
